<?xml version="1.0" encoding="UTF-8"?>
<svg id="Layer_1" data-name="Layer 1" xmlns="http://www.w3.org/2000/svg" xmlns:xlink="http://www.w3.org/1999/xlink" viewBox="0 0 1687.33 1670.49">
  <defs>
    <style>
      .cls-1 {
        fill: #fefd94;
      }

      .cls-1, .cls-2, .cls-3, .cls-4, .cls-5, .cls-6, .cls-7, .cls-8, .cls-9, .cls-10, .cls-11, .cls-12, .cls-13, .cls-14, .cls-15, .cls-16, .cls-17, .cls-18, .cls-19, .cls-20, .cls-21, .cls-22, .cls-23, .cls-24, .cls-25, .cls-26, .cls-27, .cls-28, .cls-29, .cls-30, .cls-31, .cls-32, .cls-33, .cls-34, .cls-35, .cls-36, .cls-37, .cls-38, .cls-39, .cls-40, .cls-41, .cls-42, .cls-43, .cls-44, .cls-45, .cls-46, .cls-47, .cls-48, .cls-49, .cls-50, .cls-51, .cls-52, .cls-53, .cls-54, .cls-55, .cls-56, .cls-57, .cls-58, .cls-59, .cls-60, .cls-61, .cls-62, .cls-63, .cls-64, .cls-65, .cls-66, .cls-67, .cls-68, .cls-69, .cls-70, .cls-71, .cls-72, .cls-73, .cls-74, .cls-75, .cls-76, .cls-77, .cls-78, .cls-79, .cls-80 {
        stroke-width: 0px;
      }

      .cls-2 {
        fill: #898e8e;
      }

      .cls-3 {
        fill: #adb5bd;
      }

      .cls-4 {
        fill: #6c716d;
      }

      .cls-5 {
        fill: #9f531c;
      }

      .cls-6 {
        fill: #e0e2e1;
      }

      .cls-7 {
        fill: #9098a4;
      }

      .cls-8 {
        fill: #b15e1f;
      }

      .cls-9 {
        fill: url(#linear-gradient);
      }

      .cls-10 {
        fill: #fee343;
      }

      .cls-11 {
        fill: #394439;
      }

      .cls-12 {
        fill: #36532b;
      }

      .cls-13 {
        fill: #9cc56f;
      }

      .cls-14 {
        fill: #dac669;
      }

      .cls-15 {
        fill: #4f7536;
      }

      .cls-16 {
        fill: #592607;
      }

      .cls-17 {
        fill: #446533;
      }

      .cls-18 {
        fill: #8b4d02;
      }

      .cls-19 {
        fill: #36532a;
      }

      .cls-20 {
        fill: url(#linear-gradient-6);
      }

      .cls-21 {
        fill: #345029;
      }

      .cls-22 {
        fill: #c6f289;
      }

      .cls-23 {
        fill: #618e41;
      }

      .cls-24 {
        fill: #994b18;
      }

      .cls-25 {
        fill: #efefec;
      }

      .cls-26 {
        fill: #62884b;
      }

      .cls-27 {
        fill: #2a332b;
      }

      .cls-28 {
        fill: #455059;
      }

      .cls-29 {
        fill: #a8571b;
      }

      .cls-30 {
        fill: #363a38;
      }

      .cls-31 {
        fill: #2b4024;
      }

      .cls-32 {
        fill: #64300a;
      }

      .cls-33 {
        fill: #9a9fa6;
      }

      .cls-34 {
        fill: #fff235;
      }

      .cls-36 {
        fill: #538037;
      }

      .cls-37 {
        fill: #fdfaf4;
      }

      .cls-38 {
        fill: #bc681e;
      }

      .cls-39 {
        fill: #35542c;
      }

      .cls-40 {
        fill: #b6611d;
      }

      .cls-41 {
        fill: #171a1d;
      }

      .cls-42 {
        fill: #8e4418;
      }

      .cls-43 {
        fill: #a8a5a1;
      }

      .cls-44 {
        fill: url(#linear-gradient-5);
      }

      .cls-45 {
        fill: #5c883d;
      }

      .cls-46 {
        fill: #fffee8;
      }

      .cls-47 {
        fill: #567d38;
      }

      .cls-48 {
        fill: #888c92;
      }

      .cls-49 {
        fill: #673301;
      }

      .cls-50 {
        fill: #eda010;
      }

      .cls-51 {
        fill: #314d27;
      }

      .cls-52 {
        fill: url(#linear-gradient-2);
      }

      .cls-53 {
        fill: #afa9a2;
      }

      .cls-54 {
        fill: #a4a697;
      }

      .cls-55 {
        fill: #262b2c;
      }

      .cls-56 {
        fill: #fde23a;
      }

      .cls-57 {
        fill: url(#linear-gradient-7);
      }

      .cls-58 {
        fill: #4e7534;
      }

      .cls-59 {
        fill: url(#linear-gradient-3);
      }

      .cls-60 {
        fill: #ca830a;
      }

      .cls-61 {
        fill: #39552d;
      }

      .cls-62 {
        fill: #c8c1b3;
      }

      .cls-63 {
        fill: #3e3e2e;
      }

      .cls-64 {
        fill: #9da3af;
      }

      .cls-65 {
        fill: #df8c0b;
      }

      .cls-66 {
        fill: #69310c;
      }

      .cls-67 {
        fill: #ffe03e;
      }

      .cls-68 {
        fill: #491f07;
      }

      .cls-69 {
        fill: #bb6620;
      }

      .cls-70 {
        fill: url(#linear-gradient-8);
      }

      .cls-71 {
        fill: #874113;
      }

      .cls-72 {
        fill: #c2c7a8;
      }

      .cls-73 {
        fill: #4a545c;
      }

      .cls-74 {
        fill: #f7b218;
      }

      .cls-75 {
        fill: #4a6a34;
      }

      .cls-76 {
        fill: #cc8309;
      }

      .cls-77 {
        fill: #5f6c78;
      }

      .cls-78 {
        fill: url(#linear-gradient-4);
      }

      .cls-79 {
        fill: #fffff9;
      }

      .cls-80 {
        fill: #283c21;
      }
    </style>
    <linearGradient id="linear-gradient" x1="539.03" y1="1317.08" x2="635.34" y2="1572.31" gradientUnits="userSpaceOnUse">
      <stop offset=".29" stop-color="#4d6f3a"/>
      <stop offset="1" stop-color="#62884b"/>
    </linearGradient>
    <linearGradient id="linear-gradient-2" x1="32.7" y1="922.51" x2="309.6" y2="566.15" gradientUnits="userSpaceOnUse">
      <stop offset=".47" stop-color="#2d2b2c"/>
      <stop offset=".87" stop-color="#424b52"/>
    </linearGradient>
    <linearGradient id="linear-gradient-3" x1="537.73" y1="260.47" x2="971.73" y2="150.32" gradientUnits="userSpaceOnUse">
      <stop offset=".35" stop-color="#da8d0c"/>
      <stop offset=".87" stop-color="#ffdc3a"/>
    </linearGradient>
    <linearGradient id="linear-gradient-4" x1="1093.93" y1="223.47" x2="864.58" y2="-34.77" gradientUnits="userSpaceOnUse">
      <stop offset="0" stop-color="#ffda39"/>
      <stop offset=".87" stop-color="#ffd02f"/>
    </linearGradient>
    <linearGradient id="linear-gradient-5" x1="1197.35" y1="163.18" x2="996.9" y2="7.88" xlink:href="#linear-gradient-4"/>
    <linearGradient id="linear-gradient-6" x1="391.75" y1="655.01" x2="648.18" y2="454.56" gradientUnits="userSpaceOnUse">
      <stop offset="0" stop-color="#000"/>
      <stop offset=".88" stop-color="#181c1e"/>
    </linearGradient>
    <linearGradient id="linear-gradient-7" x1="495.32" y1="332.25" x2="938.35" y2="111.94" gradientUnits="userSpaceOnUse">
      <stop offset="0" stop-color="#da8d0c"/>
      <stop offset=".87" stop-color="#cb8305"/>
    </linearGradient>
    <linearGradient id="linear-gradient-8" x1="496.92" y1="324.18" x2="590.02" y2="209.41" gradientUnits="userSpaceOnUse">
      <stop offset="0" stop-color="#e89c13"/>
      <stop offset=".87" stop-color="#ffc837"/>
    </linearGradient>
  </defs>
  <path class="cls-35" d="M353.13,863.11s-50.11,82.62-73.14,134.08c-23.02,51.47-35.21,125.96-14.9,196.39,20.32,70.43,54.18,112.41,104.29,147.63,50.11,35.21,154.4,62.3,176.07,65.01,0,0-13.54,47.4-14.9,81.26-1.35,33.86,32.51,93.45,121.89,121.89,0,0,44.69,13.54,85.33,14.9,0,0,1.35,0,4.06,8.13s8.13,40.63,37.92,37.92c29.8-2.71,47.03-9.41,63.43-29.72,16.4-20.32-4.51-65.16-4.51-65.16,0,0,28.09-7.88,38.12-40.38,10.03-32.51,7.83-57.59-4.01-77.85,0,0,46.35,1,87.88,1.4s199.04-3.01,319.03-49.56c119.99-46.55,162.93-89.89,181.79-113.17,0,0,66.62-13.64,82.87-47.96,0,0,6.82-16.45,1.81-43.94,0,0,35.92-13.24,59.59-34.91,23.68-21.67,19.46-44.95,18.26-52.57-1.2-7.62-10.03-28.49-37.92-29.29,0,0-10.63-95.91-107.35-178.58,0,0,2.21-15.2,6.42-22.42,0,0,55.38-18.21,83.37-43.79,0,0,20.47-18.21,26.64-23.02s28.74-23.63,33.41-46.8c0,0,33.86-16.25,30.85-47.86,0,0-.67-15.05.19-18.21.86-3.16,5.83-7.52,5.23-21.52s-5.27-21.67-15.2-31.75c-9.93-10.08-10.89-10.89-15.3-20.92-4.41-10.03-14.75-34.71-21.27-39.73,0,0,4.61-2.61,11.44-2.91,6.82-.3,34.21-3.51,53.47-29.8,19.26-26.29,6.82-55.38-20.07-71.83s-66.82-25.88-94.51-32.91c-27.69-7.02-61.2-16.25-68.62-19.86,0,0-8.43-5.42-21.87-20.27-13.44-14.85-42.14-41.33-62.6-53.17,0,0,15.65-29.29,16.05-77.25.4-47.96-14.65-95.91-54.98-133.23s-82.17-41.84-130.32-40.33c0,0-108.25-110.96-321.34-110.96,0,0-173.16-6.42-294.76,87.48-121.59,93.9-168.55,184.2-210.68,268.47,0,0-81.26,23.78-130.32,57.79l1.05-4.67s-34.46-14-70.88,4.36c-36.42,18.36-60.5,31.9-75.54,53.27-15.05,21.37-6.62,63.81-6.62,63.81,0,0-86.68,103.13-114.77,225.93-28.09,122.8-13.64,178.98-12.44,191.02,0,0,2.61,10.03,9.23,10.13,0,0,2.41.9,4.31-3.91s41.03-123.8,96.81-194.03c0,0,41.23-54.58,58.39-73.54s32.51-24.38,55.08-27.39c0,0,11.74,18.96,17.91,24.68s12.19,6.17,20.17,3.76c0,0,59.99,109.86,86.46,175.84Z"/>
  <path class="cls-37" d="M1340.68,420.93c2.95-6.62,3.03-13.12,3.03-13.12,0,0-14.84,11.24-44.14,13.45-29.3,2.21-66.22-14.04-89.7-31.1-23.47-17.07-44.53-59.4-52.16-80.84-7.63-21.44-9.44-64.23-5.02-86.5,3.09-15.58,12.07-39.81,17.19-52.96,17.78-24.16,42.65-41.99,72.5-49.37,74.78-18.5,152.46,35.48,173.52,120.58,18.89,76.35-14.22,151.8-75.22,179.86Z"/>
  <path class="cls-51" d="M570.51,1350.46c-11.74,15.66-24.08,45.45-24.08,45.45-9.43-1.21-18.61-2.72-27.55-4.51,5.12-44.22-25.14-114.39-40.17-154.06-15.95-42.09-54.77-133.98-71.63-174.01-16.85-40.02-45.14-85.77-58.98-112.27-13.84-26.48-29.9,7.94-38.33,16.56-2.34,2.4-6.8,5.24-12.09,8.09,1.02-1.95,2.07-3.94,3.17-5.99,24.68-46.05,55.68-92.99,55.68-92.99,0,0,26.79,58.39,33.1,71.93,6.32,13.54,40.63,88.18,49.07,106.85,8.42,18.65,60.19,134.53,69.22,155.29,9.02,20.78,62.6,139.65,62.6,139.65Z"/>
  <path class="cls-32" d="M592.79,1330.39c-.41.27-.8.53-1.19.79l-190.13-426.12c2.82,5.92,33.62,70.66,52.77,113.13,19.98,44.36,137.55,309.95,138.55,312.2Z"/>
  <path class="cls-68" d="M591.6,1331.18c-8.41,5.54-11.16,9.36-11.16,9.36,0,0-77.65-172.26-90.49-199.95-12.84-27.68-92.36-205.77-102.58-227.89-10.24-22.12-54.64-116.92-58.39-124.6-3.77-7.68-52.08-106.09-52.08-106.09,0,0,8.88-11.13,13.69-15.2,4.82-4.06,37.92-32.06,43.34-36.27,5.42-4.21,6.62-1.21,6.77,1.21.15,2.4,3.62,4.66,9.03,11.73,5.42,7.08,8.28,21.82,7.98,29.2-.3,7.37-14.6,24.08-20.76,32.21-6.18,8.13-18.22,26.03-13.71,41.38,0,0,0,.01.01.05.01.04.01.08.04.15.46,2.1,4.67,19.33,15.86,25.73,11.93,6.83,18.76,17.66,28.39,37.72,9.63,20.07,31.71,51.78,33.71,66.83,2,15.05,0,27.89,0,27.89l.09.2c.03.07.07.15.11.23l190.13,426.12Z"/>
  <path class="cls-71" d="M659.3,1305.62c-35.08,8.03-55.34,17.66-66.51,24.77-1-2.25-118.58-267.84-138.55-312.2-19.15-42.47-49.95-107.21-52.77-113.13-.04-.08-.08-.16-.11-.23l-.09-.2s2-12.84,0-27.89c-2-15.05-24.08-46.75-33.71-66.83-9.63-20.06-16.46-30.89-28.39-37.72-11.19-6.41-15.4-23.63-15.86-25.73,4.58,15.2,17.01,19.68,31.1,23.43,14.15,3.75,34.62,5.11,34.62,5.11,0,0,0,.01.01.03,1.02,2.19,66.55,142.48,74.03,159.79,7.52,17.46,35.81,64.71,42.73,79.46,6.92,14.75,29.2,55.38,34.92,67.72s45.45,89.69,45.45,89.69l53.27,106.75,19.86,27.16v.03Z"/>
  <path class="cls-9" d="M616.78,1588.65c-50.02-26.9-71.4-66.31-75.66-79.07-4.42-13.23-2.61-50.56,3.81-73.03,5.93-20.75,19.57-52.98,33.01-72.81h.01c.49-.3,13.67-8.23,15.44,3.59,1.8,12.04,5.42,26.79-3.01,45.75-8.44,18.96-21.07,46.65-8.13,79.15,12.93,32.51,99.62,37.02,110.45,46.65,10.84,9.64-24.54,71.55-75.93,49.77Z"/>
  <path class="cls-13" d="M777.88,1350.46c-5.72-49.96-68.32-39.13-83.23-35.81-14.9,3.3-59.43,19.26-74.18,22.27-14.75,3.02-29.63,11.27-29.63,11.27,11.61-11.16,24.79-16.97,46.39-26.21,27.68-11.84,50.17-17.07,74.04-21.48,23.88-4.4,38.72,0,54.77,13.65,16.05,13.64,11.84,36.31,11.84,36.31Z"/>
  <path class="cls-75" d="M777.88,1350.46c-7.07,0-35.36,4.82-52.37,9.79-9.44,2.75-31.81,10.6-51.07,17.66,14.06-5.63,55.3-33.82,74.56-37.38,19.56-3.62,23.84-6.91,23.84-6.91,2.53,4.65,4.29,10.21,5.05,16.84Z"/>
  <path class="cls-13" d="M829.8,1427.07c1.65-22.73-4.96-23.32-28.44-40.48-23.47-17.16-102.32,5.12-118.87,9.33-16.56,4.21-23.17,6.01-15.66,0,7.53-6.03,73.2-28.39,73.2-28.39,14.29-3.44,27.74-6.18,35.15-6.23,16.7-.15,40.78,8.13,49.96,24.53,9.18,16.42,4.66,41.24,4.66,41.24Z"/>
  <path class="cls-13" d="M876.45,1499.6c-.12,2.8-.34,5.53-.65,8.15-.88-7.06-11.42-11.66-12.45-20.34-1.21-10.23-1.8-19.26-21.29-30.39-19.5-11.13-62.98-2.71-81.34,1.5-17.2,3.95-42.5,11.16-45.6,12.04,12.61-4.2,26.13-8.8,32.22-11.28,12.93-5.27,43.64-21.98,75.09-22.13,31.45-.15,55.23,33.11,54.03,62.45Z"/>
  <path class="cls-31" d="M869.13,1533.92h0c-4.43,10.9-9.91,18.6-13.75,22.42-7.07,7.08-19.11,5.42-19.11,5.42,0,0-1.21-4.36-6.47-9.78-1.6-1.65-3.67-2.78-6.01-3.47,0,0,6.62-2.7,13.54-11.73s30.41-18.24,31.8-2.86Z"/>
  <path class="cls-61" d="M875.8,1507.75c-.16,1.38-.35,2.74-.57,4.06-1.33,8.36-3.53,15.77-6.11,22.1-1.39-15.39-24.88-6.18-31.8,2.86-6.7,8.75-13.12,11.55-13.53,11.72,6.92-4.82,12.62-19.25,9.91-19.25s-23.17,9.63-31.3,13.86c-7.9,4.09-18.23,15.59-18.83,16.24-15.82,6.85-34.69,15.17-40.16,17.92-9.03,4.51-11.74,11.13-11.3,19.41.46,8.28,1.41,18.46,1.41,18.46-17.85-.87-35.25-3.44-50.79-6.58-.14-.39-5.77-16.93,13.27-36.55,19.26-19.87,36.42-26.49,45.44-30.41,9.03-3.9,67.42-25.23,78.26-29.77,10.84-4.54,42.24-16.13,53.47-9.58,1.35,1.73,2.36,3.53,2.61,5.51Z"/>
  <path class="cls-26" d="M873.19,1502.24c-11.23-6.56-42.64,5.04-53.47,9.58-10.84,4.54-69.22,25.87-78.26,29.77-9.02,3.91-26.18,10.54-45.44,30.41-19.04,19.63-13.41,36.16-13.27,36.55-34.78-7.02-60.18-16.89-60.18-16.89-1.98-.98-3.9-1.98-5.8-3.01,51.39,21.78,86.76-40.13,75.93-49.77-10.84-9.63-97.52-14.14-110.45-46.65-12.95-32.51-.31-60.19,8.13-79.15,8.42-18.96,4.81-33.71,3.01-45.75-1.77-11.82-14.95-3.89-15.44-3.6,1.1-1.64,2.21-3.18,3.3-4.63,3.17-4.2,6.32-7.76,9.59-10.9,0,0,14.88-8.25,29.63-11.27,14.75-3.01,59.28-18.96,74.18-22.27,12.93-2.87,61.73-11.4,78.18,18.97,0,0-4.28,3.29-23.84,6.91-19.26,3.56-60.5,31.75-74.56,37.38-.08.04-.15.07-.22.08-15.33,5.63-28.65,10.74-31.77,12.35-7.07,3.6-11.43,9.33-7.68,7.67,3.77-1.65,39.13-13.23,57.64-18.05,10.27-2.68,29.5-8.07,47.43-12.38-3.82,1.31-65.73,22.5-73.02,28.33-7.52,6.01-.91,4.21,15.66,0,16.55-4.21,95.4-26.49,118.87-9.33,23.49,17.16,30.09,17.76,28.44,40.48-14.14,0-37.61,3.91-49.35,9.03-11.74,5.11-33.1,13.54-61.39,25.88-27.41,11.96-30.95,17.13-31.14,17.44.37-.11,13.04-4.17,26.9-8.78.03,0,.05-.01.08-.03.05-.01.14-.03.23-.07,3.1-.88,28.4-8.09,45.6-12.04,18.37-4.21,61.84-12.64,81.34-1.5,19.49,11.13,20.09,20.17,21.29,30.39.74,6.24,6.39,10.37,9.83,14.83Z"/>
  <path class="cls-69" d="M830.66,1644.31v-.04c5.46-8.17,2.6-16.1-2.22-22.93-4.81-6.81-21.06-11.43-24.68-30.09-3.51-18.16,6.22-28.39,6.73-28.92h.01c5.08-1.42,9.06-1.63,10.71,1.03,3.01,4.81,19.67,33.51,20.67,49.96.7,11.66-.39,21.6-11.23,30.99Z"/>
  <path class="cls-24" d="M815.66,1610.74c-7.61-5.8-25.29-.53-30.09-.53s-6.92-5.27-9.94-14.29c-3.01-9.03-11.57-13.22-11.57-13.22,11.36-5.84,26.13-13.22,32.49-15.53,4.96-1.8,9.82-3.71,13.95-4.84-.51.53-10.24,10.75-6.73,28.92,1.81,9.33,6.77,15.16,11.89,19.49Z"/>
  <path class="cls-16" d="M828.44,1621.34c-2.41-3.4-7.67-6.27-12.79-10.6-7.61-5.8-25.29-.53-30.09-.53s-6.92-5.27-9.94-14.29c-3.01-9.03-11.57-13.22-11.57-13.22-8.34,4.29-14.86,7.75-14.86,7.75,0,0,1.19,13.94,2.51,26.88,1.3,12.95,3.71,28,5.72,35.31,2,7.33,25.88,15.86,54.38,3.02,8.3-3.74,14.41-7.49,18.87-11.35v-.04c5.46-8.17,2.6-16.1-2.22-22.93ZM825.89,1634.29c-1.26-.8-2.11-1.8-5.88-4.36-3.77-2.56-12.79-2.41-18.5-.76-5.73,1.65-25.29,9.48-29.35,11.13-4.06,1.67-10.09,5.57-12.64,4.01-2.56-1.56,1.04-4.9,6.16-8.97,5.12-4.06,24.08-13.39,37.31-14.9,13.23-1.5,25.6,13.08,25.6,13.08.99,1.1-1.46,1.56-2.71.76Z"/>
  <path class="cls-19" d="M1453.07,1298.29c-5.66,5.04-11.39,9.9-17.15,14.56-31.21,11.72-139.39,12.34-210.8,12.73-71.43.41-213.49-16.85-293.35-37.53-79.85-20.7-126.01-25.67-163.33-26.87-37.33-1.21-72.43-7.48-78.16-8.38-5.72-.89-21.82-5.86-31.75-7.52-9.93-1.67-17.84-8.52-17.84-8.52-1.58-3.24-2.57-5.27-2.67-5.47.8.31,26.3,10.56,40.52,12.93,14.44,2.41,74.94.91,100.52.3,25.58-.6,60.19-1.21,120.69,18.96,60.5,20.17,145.77,31,145.77,31,180.39,28.29,398.89,6.62,398.89,6.62l8.63-2.82Z"/>
  <path class="cls-58" d="M1435.92,1312.85c-105.64,85.75-224.57,110.83-252.93,117.87-29.89,7.42-109.15,19.46-180.58,20.87-71.43,1.41-132.23-2.41-132.23-2.41-13.84-20.26-29.39-20.46-29.39-20.46,13.84-65.61-48.07-77.65-48.07-77.65-7.81-76.25-71.82-67.42-87.07-63.62-15.25,3.82-33.11,12.24-34.71,10.04-1.33-1.81-22.6-45.18-30.23-60.73,0,0,7.91,6.85,17.84,8.52,9.93,1.65,26.03,6.62,31.75,7.52,5.73.91,40.83,7.18,78.16,8.38,37.31,1.21,83.47,6.18,163.33,26.87,79.85,20.68,221.92,37.94,293.35,37.53,71.4-.39,179.59-1.02,210.8-12.73Z"/>
  <path class="cls-38" d="M1586.6,1175.6c-3.36,1.81-7.02,3.62-10.96,5.4,53.47-30.97,28.71-61.68,25.71-67.91-3.01-6.22-11.43-6.81-18.26-2.4-6.83,4.42-20.26,10.43-20.26,10.43-75.55,33.41-145.94,36.69-145.94,36.69h-.05c23.63-3.49,47.43-8.18,69.24-14.42,79.76-22.86,90.89-43.03,100.52-46.65,9.63-3.62,23.78,3.91,28,13.84,4.21,9.94,9.93,44.55-28,65.01Z"/>
  <path class="cls-66" d="M1077.19,1280.63c-1.98-.11-43.49-2.7-68.56-6.61-25.68-4.01-61.8-11.04-92.9-22.08-31.1-11.04-74.86-21.29-108.96-22.27-28.54-.81-57.37,5.55-80,7.26-1.11.07-2.13.12-3.06.16-3.1.14-6.05.23-8.9.24-.18.01-.35,0-.53,0-4.89-.14-9.79-.34-14.51-.58-.04,0-.08,0-.11-.01-11.28-1.06-22.33-3.58-36.76-8.28-24.08-7.83-34.92-17.05-38.13-23.88-3.21-6.83-13.44-28.89-13.44-28.89,8.09-7.8,15.72-14.8,22.98-21.1.14.91,5.63,39.87,24.97,58.02,19.56,18.35,45.14,19.26,56.88,18.65,11.73-.6,105.33-6.66,138.74.14,33.41,6.79,64.6,18.12,82.67,24.15,18.05,6.01,67.61,15.85,92.69,18.66,24.3,2.72,45.59,6.19,46.89,6.41Z"/>
  <path class="cls-40" d="M1496.15,1277.27c-35.58,13.56-87.7,18.32-166.28,20.83-35.28,1.12-71.77.91-108.61-.49,0,0-35.86-4.93-55.73-9.14-19.86-4.23-19.56-7.83,8.13-7.83s85.48,4.81,128.82,3.91c43.34-.91,64.86,1.5,78.41,1.5s32.51-1.06,38.83-1.96c6.32-.89-13.84,5.42-23.93,6.47-10.08,1.06,8.74,1.06,16.86.15,8.13-.89,56.17-4.37,83.51-13.45Z"/>
  <path class="cls-5" d="M1575.64,1181s-.03.01-.04.03c-40.62,18.47-111.28,35.65-189.45,43.33-85.77,8.42-187.2,2.71-276.59-5.72-89.39-8.42-174.87-39.13-210.38-48.76-35.53-9.63-99.02-15.05-141.17-7.53-42.13,7.53-54.77,22.88-54.77,22.88,0,0,54.77-17.15,107.44-17.15s70.43,5.11,152.3,30.39c81.86,25.29,194.73,39.72,303.98,40.93,109.26,1.21,170.35-11.73,195.94-15.94,17.58-2.9,46.1-9.91,62.22-14.02l9.86.77s3.32,30.22-17.28,50.1c.43-.28,7.46-4.96,11.4-9.75-.24.5-7.11,13.69-22.31,22.16-.04.04-.09.07-.14.07-3.33,1.6-6.83,3.09-10.51,4.48-27.35,9.07-75.39,12.56-83.51,13.45-8.13.91-26.94.91-16.86-.15,10.09-1.06,30.26-7.37,23.93-6.47-6.32.91-25.29,1.96-38.83,1.96s-35.07-2.41-78.41-1.5c-43.34.89-101.12-3.91-128.82-3.91s-27.98,3.6-8.13,7.83c19.87,4.21,55.73,9.14,55.73,9.14-62.17-2.36-125.35-8.06-185.44-16.37-95.71-13.25-130.63-32.21-175.47-41.84-42.95-9.22-108.7-3.81-133.58-2.46,22.63-1.71,51.47-8.07,80-7.26,34.1.98,77.86,11.23,108.96,22.27,31.1,11.04,67.22,18.07,92.9,22.08,24.42,3.81,64.47,6.37,68.33,6.58-2.67-.45-23.27-3.75-46.66-6.38-25.08-2.82-74.64-12.65-92.69-18.66-18.07-6.03-49.26-17.36-82.67-24.15-33.41-6.8-127.01-.73-138.74-.14-11.74.61-37.33-.3-56.88-18.65-19.34-18.15-24.84-57.11-24.97-58.02,61.37-53.21,96.74-56.07,158.9-58.78,69.53-3.02,157.42,36.13,236.57,55.1,79.16,18.96,217,17.16,243.49,17.16,19.25,0,80.76-.96,143.55-10.27h.05s70.39-3.28,145.94-36.69c0,0,13.44-6.01,20.26-10.43,6.83-4.42,15.25-3.82,18.26,2.4,3.01,6.23,27.76,36.93-25.71,67.91Z"/>
  <path class="cls-21" d="M1086.37,530.92c-6.47-.89-48.74,3.6-78.11,6.31-29.36,2.71-100.36,11.43-109.39,12.84-9.02,1.41-19.98,2.95-19.98,2.95,5.91-2.83,10.31-5.15,12.76-6.76,6.62-4.42,12.64-8.83,17.05-8.83s57.2-10.63,77.25-13.86c20.07-3.21,53.77-8.02,68.63-7.61,13.64.37,25.58,9.03,31.79,14.95Z"/>
  <path class="cls-22" d="M1182.69,669.52c-3.47,4.96-6.77,4.66-8.88,3.6-2.1-1.06-9.78-3.16-9.78-3.16-17.04-4.65-38.23-7.15-54.78-8.48,4.82.24,43.6,2.32,51.63,4.71,8.57,2.56,17.25,7.25,20.46,1.06,3.21-6.19,2.26-16.55-5.57-25.73-7.71-9.03-40.29-27.64-41.31-28.23,63.78,20.06,51.7,51.25,48.23,56.22Z"/>
  <path class="cls-39" d="M1472.53,890.78c-3.01,17.05-5.01,21.47-5.01,21.47-42.34,3.62-84.68,8.72-106.64,12.64-21.98,3.91-46.46,9.43-46.46,9.43-3.62-4.81-30.09-32.9-30.09-32.9,83.86,13.44,188.21-10.63,188.21-10.63Z"/>
  <path class="cls-12" d="M893.15,541.74c-10.01,2.71-52.36,18.96-65.01,25.58-8.23,4.32-32.07,17.44-51.83,28.32-17.7,4.36-44.17,11.01-51.2,13.61-10.84,4.02-81.47,29.7-134.84,59-53.36,29.3-111.95,84.27-124.81,101.93-12.65,17.4-39.95,44.86-40.75,45.64-14.9-29.4-29.07-57.39-29.07-57.39,28-44.23,74.64-75.85,74.64-75.85,69.83-53.27,188.41-89.69,228.44-99.93,40.02-10.23,105.03-24.97,127.91-29.49,22.88-4.52,66.51-11.44,66.51-11.44Z"/>
  <path class="cls-47" d="M1352.94,897.2c77.86-2.61,153.51-17.86,217.7-65.21,0,0,9.03-5.82,9.48-14.55.46-8.74-2.4-28-17.44-23.63-15.06,4.37-76.9,26.34-175.03,25.14-98.11-1.21-170.95-9.63-204.36-37.62,0,0-.69,24.18-16.35,34.81-15.66,10.65-49.16,30.5-86.88,32.71,0,0,52.17-18.46,69.43-28.89,17.25-10.43,27.49-26.29,21.47-50.56,0,0-48.15,62.59-187.8,65.85-139.65,3.26-230.75-52.21-301.78-93.55,0,0-6.87-4.92-16.05-4.92s-61.8-11.93-63.81-34.81c0,0-.91-10.18,10.54-16.96,11.43-6.77,19.56-8.42,35.66-8.28,16.1.15,34.46.95,67.37-14.3,32.91-15.25,97.46-55.98,128.59-67.72,31.14-11.73,63.64-17.15,81.7-12.93,0,0-40.93,3.01-85.77,23.47-44.84,20.46-82.47,44.25-100.54,55.38-18.05,11.13-48.15,22.58-75.85,23.78-27.68,1.19-49.86,1.5-52.86,17.55-3.01,16.05,62.6,27.89,83.86,28.89,21.28,1,106.85-.7,157.42-16.05,50.56-15.35,127.61-58.69,230.54-54.77,0,0,11.23.2,26.59,1.42,0,0,.18.01.49.03,4.82.24,43.6,2.32,51.63,4.71,8.57,2.56,17.25,7.25,20.46,1.06,3.21-6.19,2.26-16.55-5.57-25.73-7.71-9.03-40.29-27.64-41.31-28.23-.01-.01-.03-.01-.03-.01,0,0,11.54.39,15.66,1.21.74.15,1.45.19,2.07.12h-.01c4.98-1.8,1.19-5.74-2.11-9.95-3.32-4.21-4.51-5.27-9.33-11.15-4.82-5.86-14.14-7.67-26.79-10.37-12.64-2.71-31.15-7.98-38.98-9.63-7.68-1.64-52.71-4.78-54.28-4.89h-.04c-51.83-.18-142.63,1.26-161.17.22,0,0,170.46-2.51,190.32-3.1,19.87-.61,33.91-1.21,38.33-5.23,4.42-4.01,5.42-22.27-.2-28.09-.46-.47-.96-.98-1.52-1.49-6.47-.89-48.74,3.6-78.11,6.31-29.36,2.71-100.36,11.43-109.39,12.84-9.02,1.41-19.98,2.95-19.98,2.95-10.1,4.82-24.62,11.16-41.21,18.12-26.29,11.02-48.35,27.78-75.44,41.32-27.07,13.53-45.72,24.97-61.98,30.69,1.08-.79,36.01-25.69,50.83-33.7,5.24-2.83,14.65-8,25.22-13.81-17.7,4.36-44.17,11.01-51.2,13.61-10.84,4.02-81.47,29.7-134.84,59-53.36,29.3-111.95,84.27-124.81,101.93-12.65,17.4-39.95,44.86-40.75,45.64h0c12.56,24.83,25.61,50.63,31.12,61.5,12.04,23.78,149.29,286.22,149.29,286.22,0,0,64.1-61.99,126.7-71.93,62.6-9.93,127.92-2.41,195.03,18.66,67.12,21.07,120.99,38.52,210.38,44.55,89.39,6.01,206.77,3.91,269.37-5.42,62.61-9.33,130.63-23.17,170.06-60.8,0,0-18.05-113.77-109.15-176.37-42.34,3.62-84.68,8.72-106.64,12.64-21.98,3.91-46.46,9.43-46.46,9.43,3.62,4.82,1,9.03,1,9.03,0,0-27.49-25.88-43.34-43.94,0,0-31.1-9.83-52.17-25.08,0,0,55.18,25.48,133.03,22.88ZM753.2,824.16s-21.52-11.69-31.15-17.11-16.1-9.78-21.82-12.49c-5.72-2.71-11.82-9.41-13.44-13.73.61.24,20.04,8.53,32.29,15.83,12.45,7.44,46.36,29.5,101.13,44.95,54.77,15.45,105.55,16.25,131.43,16.25s84.87-4.82,95.31-6.62c10.43-1.8,13.64-1.29,13.64-1.29,0,0-12.51,5.3-42.68,9.32-30.16,4.01-84.34,6.62-127.68,2.4-43.34-4.21-94.1-17.05-137.04-37.52ZM1119.69,854.31c-3.3,4.27-6.92,9.78-19.35,18.81-12.45,9.03-46.56,30.3-62,38.52-15.45,8.23-48.87,23.93-73.39,33.11-24.53,9.18-49.96,15.95-49.96,15.95,7.83-4.97,54.32-25.9,54.32-25.9,83.97-33.7,145.08-83.06,145.08-83.06,4.32-3.36,8.63-1.71,5.31,2.56Z"/>
  <path class="cls-22" d="M1656.93,696.55c-1.52,3.39-3.01,8.8-3.2,9.47,1.94-10.96,1.49-15.89-.92-18.89-2.41-3.02-6.33-12.5-11.43-14.9-5.12-2.41-11.3-12.65-16.58-16.42-5.28-3.75-29.42-15.64-29.42-15.64-50.21-23.47-155.66-37.33-155.66-37.33-102.76-9.98-243.97,33.66-247.92,34.89,45.49-21.06,157.05-39.1,193.14-38.8,36.12.31,91.8-.89,149.29,11.74,57.48,12.64,99.62,38.33,113.27,50.37,13.64,12.04,11.02,31.9,9.43,35.51Z"/>
  <path class="cls-23" d="M1653.74,706.02s-.01.04-.01.07c-3.62-6.62-21.07-23.78-54.18-37.33-33.11-13.54-144.47-16.85-223.62-10.84-79.16,6.01-179.39,46.05-179.39,46.05-2.41-12.95-10.08-24.38-10.08-24.38,17-13.69,5.27-41.84,5.27-41.84,0,0,.03-.01.08-.03,3.95-1.23,145.16-44.87,247.92-34.89,0,0,105.45,13.86,155.66,37.33,0,0,24.14,11.89,29.42,15.64,5.28,3.77,11.46,14,16.58,16.42,5.11,2.4,9.02,11.88,11.43,14.9,2.41,3.01,2.86,7.94.92,18.89Z"/>
  <path class="cls-21" d="M1578.79,582.72c-1.35-.56-23.17-9.47-32.21-12.84-9.33-3.48-16.56-4.05-30.41-12.47-13.84-8.42-31.9-12.04-52.97-18.37-21.06-6.31-74.94-10.54-100.82-10.54s-38.23,5.42-68.03,8.13-101.12,24.08-112.56,28.29c-11.26,4.14-30.19,10.79-30.79,11.01-20.42-8.9-51.83-10.55-51.83-10.55,2.71-5.27,3.32-20.46,2.86-29.65-.45-9.18-24.38-22.58-24.38-22.58,85.18-16.25,153.51-19.56,222.73-21.06,69.22-1.52,142.36,3.6,149.28,7.22,6.92,3.62,30.41,20.76,47.85,31.9,14.28,9.12,59.05,37.65,81.28,51.51Z"/>
  <path class="cls-36" d="M1595.39,592.78c-10.82-1.5-24.55-6.27-34.2-10.04-12.16-4.74-35.69-9.09-35.69-9.09h-.05c-90.91-36.41-247.37-9.94-286.78-3.62-39.43,6.32-80.5,9.63-80.5,9.63-2.15-1.37-4.56-2.61-7.16-3.74.6-.22,19.53-6.87,30.79-11.01,11.44-4.21,82.77-25.58,112.56-28.29s42.15-8.13,68.03-8.13,79.76,4.23,100.82,10.54c21.07,6.33,39.13,9.94,52.97,18.37,13.84,8.42,21.07,8.99,30.41,12.47,9.03,3.37,30.85,12.28,32.21,12.84h.01c4.96,3.09,8.79,5.44,10.92,6.69,2.57,1.5,4.36,2.56,5.67,3.37Z"/>
  <path class="cls-22" d="M1561.15,582.73c-1.53-.22-51.28-7.38-106.67-14.11-56.29-6.84-176.98,7.31-176.98,7.31-99.13,19.41-116.22,8.64-116.76,8.28h-.01c19.26,4.05,47.85.58,104.14-9.95,56.27-10.54,97.52-11.13,135.74-12.93,37.54-1.79,121.81,11.84,124.82,12.32h.08s23.47,4.35,35.65,9.09Z"/>
  <path class="cls-45" d="M1624.81,634.74c-35.21-20.45-86.97-30.08-86.97-30.08-79.76-15.95-149.28-10.84-220.62-3.62-71.32,7.22-130.77,29.65-130.77,29.65-9.78-10.39-20.78-14.6-20.78-14.6,2.36-19.16-4.66-31.39-4.94-31.88.54.37,17.63,11.13,116.76-8.28,0,0,120.69-14.15,176.98-7.31,55.39,6.73,105.14,13.9,106.67,14.11.03.01.04.01.04.01,9.64,3.77,23.38,8.53,34.2,10.04h.01c4.6,2.82,3.32,2.52,9.56,7.67,7.9,6.5,19.49,33.44,19.84,34.29Z"/>
  <path class="cls-79" d="M1193.43,713.6s120.79-51.37,231.95-48.96c0,0-111.16,27.89-86.48,145.27,0,0-86.08-4.51-133.63-24.38,0,0-15.65-7.83-18.96-11.59-3.31-3.76-9.33-11.44-9.33-11.44,0,0,14.25-16.2,16.45-48.91Z"/>
  <path class="cls-79" d="M1469.93,663.64s54.38-1,93.9,5.82,86.88,27.69,88.49,59.59c0,0,8.23,35.72-95.31,56.58,0,0,18.66-96.71-87.08-122Z"/>
  <ellipse class="cls-79" cx="1472.01" cy="747.77" rx="32.28" ry="32.66"/>
  <ellipse class="cls-79" cx="1400.9" cy="730.53" rx="17.16" ry="16.78"/>
  <ellipse class="cls-79" cx="1405.57" cy="777.89" rx="12.49" ry="11.61"/>
  <path class="cls-79" d="M696.32,740.39s87.28,53.57,161.32,72.54c0,0-15.35-65.91,43.64-103.84,0,0-54.48,17.76-80.06,21.97-25.58,4.21-73.14,10.53-124.9,9.33Z"/>
  <path class="cls-79" d="M955.06,687.12s57.89-20.47,128.32-18.36c70.43,2.11,102.03,15.95,103.08,28.29,1.05,12.34,5.87,78.86-96.16,110.76,0,0,10.53-62.6-26.49-95.71-37.02-33.11-85.68-29.19-108.75-24.98Z"/>
  <circle class="cls-79" cx="1006.18" cy="771.55" r="33.35"/>
  <circle class="cls-79" cx="936.13" cy="741.57" r="24.41"/>
  <ellipse class="cls-79" cx="934.29" cy="795.61" rx="12.74" ry="12.2"/>
  <path class="cls-25" d="M409.89,362.07l-6.03,16.05c-39.25,13.41-89.63,48.09-92.75,50.25l30.65-24.77s-47.55,24.99-58.98,31.3c-11.44,6.33-53.88,40.94-61.71,47.05-7.83,6.12-43.04,32.41-54.77,45.95-11.74,13.54-34.32,32.8-52.98,54.77-18.65,21.98-37.61,53.88-49.35,83.38-11.74,29.5-18.66,47.55-24.08,60.8-5.42,13.25-17.46,58.98-17.46,58.98-12.84,58.2-9.85,153.68-9.85,153.68-1.15,8.86-1.38,13.87-1.38,13.87-9.44-17.05-6.03-94.1-6.03-94.1,5.62-79.06,31.3-150.89,31.3-150.89,61.8-162.53,146.08-218.71,219.22-270.78,73.14-52.06,152.19-77.55,152.19-77.55l2,2.02Z"/>
  <path class="cls-64" d="M168.19,655.96c-8.29,8.57-15.59,16.33-20.95,22.33-23.67,26.48-73.03,96.7-73.03,96.7-44.87,69.28-57.93,136.36-61.62,164.52,0,0-2.99-95.48,9.85-153.68,0,0,12.04-45.74,17.46-58.98,4.2-10.27,9.3-23.42,16.85-42.55h0s22.28,49.48,22.28,49.48c0,0,22.58-12.64,36.72-29.8,14.14-17.15,40.54-40.66,52.46-48.01Z"/>
  <path class="cls-77" d="M330.23,510.15c-10.84,10.43-61.8,51.36-79.85,66.22-13.96,11.49-53.86,50.33-82.18,79.6-11.92,7.35-38.32,30.87-52.46,48.01-14.14,17.16-36.72,29.8-36.72,29.8l-22.28-49.46h0c2.19-5.57,4.59-11.62,7.23-18.26,11.74-29.5,30.7-61.39,49.35-83.38,13.84-16.29,29.82-31.08,41.96-43.16-.3.58-7.1,14.23,8.61,26.22,16.05,12.23,32.71,24.88,38.72,28.48,6.01,3.62,9.63,2.41,16.85-3.41l7.23-5.81s-18.07-21.28-25.08-30.91c-7.03-9.63-9.43-19.06-9.43-27.09s-1.61-9.63.39-12.43c1-1.41,6.27-7.03,12.3-13.02,0,0-1.6,6.99,3.09,18.03,4.69,11.04,17.93,24.88,21.53,33.91,3.62,9.03,11.84,18.85,11.84,18.85l9.48-7.45c57.98-49.54,79.41-54.74,79.41-54.74Z"/>
  <path class="cls-7" d="M290.69,531c-21.43,16.18-37.73,31.81-39.87,33.89l-9.48,7.45s-8.22-9.82-11.84-18.85c-3.6-9.03-16.85-22.88-21.53-33.91-4.69-11.04-3.09-18.03-3.09-18.03,5.44-5.43,11.51-11.17,15.59-14.36,0,0,3.62,7.3,15.66,15.74,12.04,8.42,54.57,28.08,54.57,28.08Z"/>
  <path class="cls-3" d="M295.12,439.11l32.3,67.83c-12.79,6.92-25.46,15.58-36.73,24.07,0,0-42.53-19.65-54.57-28.08-12.04-8.44-15.66-15.74-15.66-15.74.42-.34.83-.65,1.21-.92,7.77-5.65,20.83-21.07,21.64-22.04l.04-.04c14.91-11.81,32.63-25.54,39.43-29.3,11.43-6.31,58.98-31.3,58.98-31.3l-30.65,24.77-.11.08-.04.03-15.85,10.63Z"/>
  <path class="cls-2" d="M389.23,408.42s-10.65,30.68-15.45,71.82c0,0-7.42,5.62-46.35,26.69l-32.3-67.83s16.25-6.22,24.27-8.82c8.03-2.61,42.95-16.86,69.83-21.87Z"/>
  <path class="cls-4" d="M402.86,381.33c-6.22,14.44-20.76,97.81-20.76,97.81l-8.33,1.1c4.81-41.15,15.45-71.82,15.45-71.82-26.88,5.01-61.8,19.26-69.83,21.87-8.02,2.6-24.27,8.82-24.27,8.82l15.85-10.63.04-.03c41.32-27.07,91.85-47.12,91.85-47.12Z"/>
  <path class="cls-73" d="M196.86,472.64c-33.3,27.17-58.05,51.55-58.05,51.55,0,0-2.87-16.46-1.26-32.78,0,0,4.82-19.19,19.27-32.29,14.44-13.08,30.09-19.41,34.75-11.43,4.67,7.98,6.34,18.76,5.28,24.95Z"/>
  <path class="cls-6" d="M278.87,416.25c-6.26,3.26-12.62,6.89-19,10.81-9.06-1.44-33.67-1.64-42.26,1.22-8.41,2.82-34.78,15.68-35.77,16.17h-.01c-6.93,1.23-16.18,6.7-25,14.68-14,12.69-18.96,31.1-19.26,32.23.6-6.09,1.81-12.16,4.05-17.34,8.23-19.06,24.28-29.09,41.74-39.52,17.46-10.44,43.34-24.69,64.4-25.08,21.07-.41,31.11,6.83,31.11,6.83Z"/>
  <path class="cls-33" d="M196.86,472.64c1.06-6.19-.61-16.97-5.28-24.95-1.81-3.1-5.3-4.05-9.74-3.25.99-.49,27.36-13.35,35.77-16.17,8.59-2.86,33.2-2.65,42.26-1.22-21.78,13.37-43.81,29.95-63.01,45.59Z"/>
  <path class="cls-48" d="M372.77,543.06s-8.26,20.63-16.71,39.59l-30.05-56,6.64-5.07s11.63,20.46,16.46,25.49c4.81,5.01,23.67-4.01,23.67-4.01Z"/>
  <path class="cls-52" d="M356.06,582.65c-5.15,11.59-10.36,22.56-13.79,27.82-9.03,13.86-31.3,26.88-38.93,33.11-7.63,6.22-32.91,24.88-39.33,36.11,0,0-12.23,3.21-19.06-8.63-6.83-11.84-10.63-19.06-10.63-19.06,0,0,20.04-35.76,31.06-50.99.8-1.11,1.56-2.11,2.25-2.98,10.24-12.84,31.1-40.74,31.5-41.34.41-.61-4.01-2-7.63.41-3.62,2.4-33.1,29.48-45.14,40.13-12.04,10.63-46.36,42.32-68.03,69.22-21.67,26.88-46.14,57.98-55.37,70.62-9.24,12.65-52.37,75.55-67.12,109.56-14.75,34.01-23.17,50.37-36.42,99.33,0,0,1.21-35.32,6.03-51.17,4.81-15.85,25.48-69.22,48.35-105.34,22.88-36.12,40.93-58.79,48.35-68.63,7.42-9.82,50.46-59.43,56.34-65.61,5.86-6.18,57.22-57.39,79.91-77.46,22.67-20.06,45.44-37.52,45.44-37.52l33.62,70.02s3.01-3.21,3.6-7.22l-33.1-62.6,1.88-1.44,20.38,36.89-14.72-41.23,10.5-8.03,30.05,56Z"/>
  <path class="cls-59" d="M1016.86,237.66c-20.07,6.42-28.96,22.48-28.96,22.48-162.74,22.67-290.6,69.22-385.19,116.68,49.96-38.82,62.6-120.7,60.19-151.71-2.41-31-69.02-74.14-67.42-80.15,1.61-6.03,16.06-19.67,26.49-25.29,10.43-5.62,44.55-26.48,82.27-34.1,37.72-7.63,76.64,0,126.01,9.63,48.27,9.41,103.57,38.93,105.98,40.21.01.01.03.03.04.03,53.48,42.19,80.59,102.22,80.59,102.22Z"/>
  <path class="cls-78" d="M1116.78,148.97c-41.73,27.29-52.56,79.06-52.56,79.06l-38.53,8.42c-8.34-20.83-21.06-45.09-31.29-62.6h-.01c-.39-1.11-17.74-48.28-25.27-59.8-7.63-11.63-12.53-24.47-25.73-33.3-13.19-8.83-24.43-22.47-34.86-26.88-10.44-4.42-50.57-24.08-85.88-24.08,0,0,59.4-13.44,96.72-14.14,148.67,19.56,197.43,133.33,197.43,133.33Z"/>
  <path class="cls-76" d="M1150.32,127.61c-18.42,8.99-27.13,17.76-27.13,17.76-59.57-115.18-176.96-128.11-199.91-129.55,19.19,1.06,104.14,7.76,156.57,45.67,59.4,42.93,70.47,66.12,70.47,66.12Z"/>
  <path class="cls-44" d="M1212.75,110.14c-27.21,3.13-47.86,10.37-62.42,17.47,0,0-11.07-23.19-70.47-66.12-52.43-37.91-137.38-44.61-156.57-45.67,36.85-5.54,108.01,9.16,122.87,10.75,14.84,1.61,71.43,29.3,93.66,36.92,22.23,7.63,72.93,46.65,72.93,46.65Z"/>
  <path class="cls-10" d="M1225.13,109.04c-4.27.27-8.4.64-12.38,1.1,0,0-50.71-39.02-72.93-46.65-22.23-7.63-78.81-35.31-93.66-36.92-14.86-1.6-86.02-16.29-122.87-10.75-.18,0-.34-.01-.5-.03-.31-.01-.61-.03-.89-.04-.27-.01-.53-.03-.76-.04-1.16-.05-1.79-.07-1.79-.07-37.31.7-96.72,14.14-96.72,14.14,35.31,0,75.44,19.67,85.88,24.08,10.43,4.42,21.67,18.05,34.86,26.88,13.21,8.83,18.11,21.67,25.73,33.3,7.53,11.51,24.88,58.69,25.27,59.78-4-6.84-7.61-12.66-10.43-16.84-2.56-3.79-4.33-6.68-5.8-9.21-.19-.33-.37-.64-.54-.95-.23-.39-.45-.79-.66-1.16-.01-.03-.04-.07-.07-.09-3.49-6.22-5.88-11.02-15.81-23.9-14.84-19.26-44.55-32.1-72.23-50.97-27.7-18.85-91.1-31.3-120-29.69-6.57.37-15.93,2.53-26.93,6.01-.58.19-1.16.37-1.76.57-2.38.77-4.82,1.6-7.33,2.48-.62.22-1.25.43-1.88.66-9.51,3.4-19.81,7.54-30.32,12.16-.7.31-1.41.62-2.11.93-2.82,1.25-5.63,2.53-8.45,3.85-.7.33-1.41.65-2.13.99-2.55,1.19-5.08,2.41-7.61,3.64-.74.37-1.48.72-2.21,1.08-10.08,4.97-19.96,10.23-29.16,15.55-1.27.73-2.53,1.48-3.78,2.21-6.76,4.02-13.1,8.06-18.76,12.04-.62.43-1.23.87-1.83,1.29-2.03,1.46-3.98,2.91-5.82,4.35-38.13,29.7-95.11,108.35-114.77,132.84-19.67,24.47-56.99,88.28-71.84,130.41-14.84,42.14-23.97,134.84-23.97,134.84-8.38,7.79-12.54,12.24-12.54,12.24-7.83-164.34,101.15-303.23,182.99-385.26S785.41-2.72,960.87,7.52c175.47,10.23,264.25,101.52,264.25,101.52Z"/>
  <path class="cls-56" d="M1125.81,421.35c-18.96-9.33-35.21-31.3-35.21-31.3-79.15,5.12-183.9,18.66-183.9,18.66-67.72,7.22-184.59,57.09-202.86,64.71-18.26,7.63-100.32,49.56-130.21,65.61-29.9,16.05-63.41,43.14-80.67,54.97-17.25,11.85-61.8,44.75-79.26,59.8-17.46,15.05-48,42.95-56.13,54.83-8.13,11.89-13.69,15.66-17.61,26.64-3.81,10.69,7.25,17.2,7.84,17.54-5.93-.65-10.01-2.95-11.46-7-2.71-7.53-5.42-20.17,21.67-49.67,27.09-29.5,103.43-100.12,209.78-156.31,106.35-56.18,220.91-114.57,329.27-134.42,108.35-19.87,195.33-18.66,195.33-18.66,0,0,12.65,18.66,33.41,34.6Z"/>
  <path class="cls-49" d="M1190.12,488.11c-5.78.47-11.47,1-17.05,1.57-102.93,10.54-266.37,36.72-321.75,46.94-55.38,10.24-179.98,40.33-229.34,55.38-49.35,15.05-35.51,18.07-86.08,36.42-50.56,18.37-111.15,62.3-126,80.67-14.86,18.35-27.2,37.92-43.14,41.84-7.38,1.81-13.86,2.46-18.95,1.88-.6-.34-11.65-6.85-7.84-17.54,2.21-6.18,4.93-10.08,8.33-14.41,0,0,14.55,15.02,50.06-21.1,35.51-36.12,62.9-53.58,94.51-68.63,31.6-15.05,102.32-49.06,170.34-68.32,68.03-19.26,190.39-45.75,272.92-55.99,72.8-9.02,205.01-18.99,253.99-18.72Z"/>
  <path class="cls-49" d="M1652.32,555.49c-2.61-11.63-16.25-26.88-33.51-37.12-17.25-10.23-45.95-14.25-78.46-12.43-32.05,1.77-70.46-6.93-71.54-7.18-.01-.01-.03-.01-.03-.01-5.77-4.25-10.48-7.39-15.81-9.06-10.54-3.32-21.98-4.36-28.9-4.74-4.89-.26-76.92-3.06-155.09-.93,51.99-3.95,156.47-6.88,227.02-2.15,86.3,5.77,135.02,32.94,138.28,34.82.05.03.09.05.12.07,20.72,11.55,17.9,38.75,17.9,38.75Z"/>
  <path class="cls-18" d="M1623.26,582.59h-.04c-1.88.23-3.68.38-5.43.46-1.38-3.48-11.04-8.65-14.23-11.51-3.81-3.41-9.83-2-16.46-4.79-6.62-2.79-30.5-16.88-38.93-22.5-8.42-5.61-79.37-45.49-79.37-45.49,1.08.24,39.49,8.95,71.54,7.18,32.51-1.81,61.2,2.21,78.46,12.43,17.25,10.24,30.89,25.49,33.51,37.12,0,0,1.81,22.7-29.05,27.1Z"/>
  <path class="cls-67" d="M1673.54,557.01c14.18-45.85-47.51-66.53-115.73-79.37-68.22-12.84-236.37-8.83-292.94-6.42-56.59,2.41-209.08,11.63-322.25,25.68-112.28,13.94-293.7,65.4-296.53,66.2l46.62-25.84s97.22-29.23,141.15-40.36c43.95-11.13,206.77-32.51,246.2-34.92,39.43-2.4,203.16-1.8,253.42-8.67,50.26-6.88,106.55-4.88,146.88,0,39.28,4.74,96.69,14.8,99.68,15.33-2.53-.57-43.34-9.83-59.96-14.79-17.16-5.11-50.17-15.91-50.17-15.91,10,1.65,19.45,3.63,27.7,5.99,47.76,13.64,67.81,17.25,97.52,25.68,29.69,8.44,85.88,20.46,86.68,67.02,0,0-.95,9.87-8.28,20.38Z"/>
  <path class="cls-50" d="M1125.81,421.35s-13.58.31-34.62,1.23c0,0-14.14-9.05-21.97-16.58s-1.8-14.29-1.8-14.29c7.88-.61,15.64-1.18,23.17-1.67,0,0,16.25,21.97,35.21,31.3Z"/>
  <path class="cls-50" d="M1579.87,468.62c-4.6-.81-60.84-10.63-99.51-15.3-40.33-4.88-96.62-6.88-146.88,0-39.95,5.46-151.58,6.2-215.5,7.48,0,0-15.45-4.62-22.47-14.25-7.03-9.64,21.29-17.85,21.29-17.85,6.68.14,13.11.41,19.25.79,0,0,59.39,24.49,134.83,20.87,75.44-3.62,91.1-20.87,91.1-20.87,0,0,60.13.56,107.94,8.46,0,0,33.01,10.81,50.17,15.91,16.32,4.88,55.99,13.9,59.78,14.76Z"/>
  <path class="cls-65" d="M1673.54,557.01c-5.32,7.64-14.04,15.62-28.24,20.36-8.36,2.79-15.62,4.44-22.04,5.23,30.87-4.4,29.05-27.1,29.05-27.1,0,0,2.82-27.2-17.9-38.75-.03-.01-.07-.04-.12-.07-33.09-21.62-75.49-32.42-144.59-38.13-69.22-5.73-167.94-.91-229.95,1.8-60.55,2.64-197.97,14.36-204.38,14.91-43.14,3.4-87.02,7.58-119.24,11.57-82.54,10.24-204.89,36.73-272.92,55.99-68.02,19.26-138.74,53.27-170.34,68.32-31.61,15.05-59,32.51-94.51,68.63-35.51,36.12-50.06,21.1-50.06,21.1,2.65-3.39,5.73-7.03,9.28-12.23,8.13-11.88,38.67-39.78,56.13-54.83,17.46-15.05,62-47.95,79.26-59.8,17.25-11.84,50.76-38.93,80.67-54.97,29.89-16.05,111.95-57.98,130.21-65.61,18.27-7.63,135.14-57.49,202.86-64.71,0,0,85.76-11.09,160.73-17,0,0-6.03,6.76,1.8,14.29s21.97,16.58,21.97,16.58c-46.83,2.05-130.59,7.06-183.49,18.14-76.6,16.05-181.26,48.13-305.18,115.88,5.5-2.57,124.58-58.14,207.67-84.88,79.27-25.52,215.66-45.02,306.62-43.03,0,0-28.32,8.21-21.29,17.85,7.02,9.63,22.47,14.25,22.47,14.25-16.51.33-29.82.69-37.92,1.19-39.43,2.41-202.25,23.78-246.2,34.92-43.94,11.13-141.15,40.36-141.15,40.36l-46.62,25.84c2.83-.8,184.25-52.27,296.53-66.2,113.17-14.04,265.66-23.27,322.25-25.68,56.57-2.41,224.72-6.42,292.94,6.42,68.22,12.84,129.91,33.52,115.73,79.37Z"/>
  <ellipse class="cls-35" cx="1282.75" cy="270.72" rx="118.96" ry="136.47" transform="translate(-26.81 209.11) rotate(-9.22)"/>
  <path class="cls-53" d="M1343.72,407.81s-.08,6.5-3.03,13.12c-6.99,3.24-14.36,5.82-22.05,7.73-74.78,18.5-152.46-35.48-173.52-120.59-12.65-51.13-1.98-101.85,24.77-138.22-5.12,13.15-14.1,37.38-17.19,52.96-4.42,22.28-2.6,65.06,5.02,86.5,7.63,21.44,28.69,63.78,52.16,80.84,23.48,17.05,60.41,33.3,89.7,31.1,29.3-2.21,44.14-13.45,44.14-13.45Z"/>
  <path class="cls-27" d="M1192.19,432.07c-21.52-4.82-42.69-10.29-52.13-15.02-16.86-8.42-35.32-32.91-50.17-73.84-14.84-40.93-21.26-81.06-12.04-109.56,9.24-28.5,20.07-39.72,20.07-39.72-31.34,71.81,10.25,145.57,11.21,147.25,0,.01.01.01.01.03,0,0,18.46,44.34,41.34,62.69,22.88,18.37,23.81,20.22,41.7,28.17Z"/>
  <path class="cls-11" d="M1237.93,441.51c-11.82-2.28-28.89-5.66-45.74-9.44-17.89-7.95-18.83-9.81-41.7-28.17-22.88-18.35-41.34-62.69-41.34-62.69,0-.01-.01-.01-.01-.03-32.88-74.23-6-140.44-6-140.44,29.7-65.81,109.15-80.25,109.15-80.25-16.4,8.42-29.74,18.08-40.59,28.43h-.01s-26.82,5.27-46.08,42.19c-19.26,36.92-23.67,61.75-17.66,93.89,6.03,32.13,21.71,58.71,30.62,66.84,8.36,7.63,24.62,30.6,26.6,33.4.03.04.05.08.08.12.07.11.11.16.11.16,24.87,37.92,71.04,55.42,72.57,55.99Z"/>
  <path class="cls-72" d="M1125.21,255.32c-2.02,37.33,12.03,79.06,35.72,122.8,1.33,2.45,2.74,4.82,4.24,7.11-1.31-1.86-8.88-12.56-16.29-21.79,0,0,0-.01-.01-.03-.24-.5-4.39-8.68-13.72-21.21-9.63-12.95-23.17-47.85-23.17-82.17s9.58-60.39,10.17-62.06v-.03s.03-.04.03-.05c1.1-2.22,2.23-4.48,3.44-6.79,19.26-36.92,46.08-42.19,46.08-42.19-36.69,34.94-44.93,77.61-46.47,106.4Z"/>
  <path class="cls-41" d="M1062.19,376.82c-1.48.2-3.01.43-4.6.69-17.66,2.82-32.51,1.61-32.51,1.61,0,0-12.64-25.08-20.67-37.12-8.03-12.04-16.85-50.97-3.21-75.44,13.64-24.49,56.59-27.29,56.59-27.29,0,0-45.16,11.54-51.37,44.09,0,0,12.85-24.68,24.58-22.04,11.2,2.51,18.35,29.31,18.99,31.8-.77-2.13-1.73-4.39-2.9-6.58-3.49-6.57-8.82-12.49-16.39-11.96,0,0-12.45,0-18.66,12.84-6.22,12.85-.2,31.91,2,35.92,1.53,2.79,6.81,9.07,14.56,11.02,0,0,6.11,17.88,16.14,27.1,10.04,9.24,17.44,15.36,17.44,15.36Z"/>
  <path class="cls-30" d="M1086.09,374.71s-8.97,0-23.89,2.11c0,0-7.41-6.12-17.44-15.36-10.04-9.22-16.14-27.1-16.14-27.1,3.39.85,7.26.88,11.49-.58,9.75-3.39,12.26-15.18,12.62-23.7.14-3.62-.09-6.65-.34-8.21-.24-1.58-1-4.84-2.33-8.56h0s-.01-.04-.03-.09c-.01-.03-.03-.07-.03-.09-.64-2.49-7.79-29.3-18.99-31.8-11.73-2.64-24.58,22.04-24.58,22.04,6.22-32.55,51.37-44.09,51.37-44.09-11.24,46.14,28.29,135.44,28.29,135.44Z"/>
  <path class="cls-41" d="M1012.04,380.72s-7.44.16-19.71,1.07c.37-6.96-8.99-17.72-14-25.75-5.01-8.02-16.85-28.09-16.46-43.34.41-15.25,8.44-33.91,8.44-33.91l-95.59,18.46c.49-3.94.88-6.22.88-6.22l105.55-20.32s-6.62,34.16,5.21,60.45c11.84,26.29,25.68,49.56,25.68,49.56Z"/>
  <path class="cls-30" d="M992.34,381.79c-1.4.09-2.86.22-4.37.34-14.84,1.21-91.69,13.25-99.72,15.66,0,0-13.25-34.12-14.84-59.4-1.1-17.15.31-32.83,1.33-41.13l95.59-18.46s-8.03,18.66-8.44,33.91c-.39,15.25,11.44,35.32,16.46,43.34,5.01,8.03,14.37,18.79,14,25.75Z"/>
  <path class="cls-30" d="M883.43,398.98s-3.97.7-10.43,2.09c0,0-12.35-5.89-15.06-12.51s-6.31-15.95-12.7-33.1c-6.39-17.16,0-59.65,0-59.65,7.79-1.53,15.26-2.8,22.74-3.97,0,0-7.63,62.61,15.45,107.15Z"/>
  <path class="cls-35" d="M506.14,568.09c-42.79,28.63-106.69,73.65-133.37,103.98,0,0-6.62-94.81,12.64-121.29,7.53-10.35,26.26-30.35,54.37-54.51,0,0-12.23,15.79-19.45,27.93-7.22,12.14-16.85,22.97-21.97,31.1-5.04,8-12.7,26.76-12.93,27.35l10.23-10.29s1.19-9.82,7.22-13.73c6.03-3.91,12.34-13.31,17.46-19.15,5.12-5.84,2.71-6.85,9.03-12.81,6.31-5.96,22.27-19.71,22.27-19.71,0,0,2.71,10.73-4.21,20.97s2.86,19.87,4.74,26.18c1.88,6.33-1.73,12.01-3.83,15.79-2.11,3.78,3.6,10.29,7.83,13.5,4.21,3.21,15.94,2,22.56-3.1,6.57-5.08,20.09-7.41,27.43-12.19Z"/>
  <path class="cls-20" d="M873,401.06c-8.95,1.91-22.66,5.13-37.12,9.56-24.88,7.63-126.01,38.13-287.94,130.22,0,0-17.4,10.92-41.61,27.11-.07.04-.12.08-.19.12-7.34,4.78-20.86,7.11-27.43,12.19-6.62,5.11-18.35,6.31-22.56,3.1-4.23-3.21-9.94-9.72-7.83-13.5,2.1-3.78,5.72-9.47,3.83-15.79-1.88-6.31-11.66-15.94-4.74-26.18s4.21-20.97,4.21-20.97c0,0-15.95,13.75-22.27,19.71-6.33,5.96-3.91,6.98-9.03,12.81-5.12,5.84-11.43,15.24-17.46,19.15-6.03,3.91-7.22,13.73-7.22,13.73l-10.23,10.29c.23-.58,7.9-19.34,12.93-27.35,5.12-8.13,14.75-18.96,21.97-31.1,7.22-12.14,19.45-27.93,19.45-27.93,43.83-37.71,110.41-85.54,192.74-122.76,114.89-51.94,168.57-69.01,212.72-77.7,0,0-6.39,42.49,0,59.65,6.39,17.15,10,26.48,12.7,33.1s15.06,12.51,15.06,12.51Z"/>
  <path class="cls-60" d="M1460.71,424.27c-26.44-2.93-87.2-5.16-87.2-5.16,15.48-10.19,27.76-31.26,33.44-42.28,0,0,35.51,21.16,53.76,47.44Z"/>
  <path class="cls-34" d="M1470.42,425.73c-2.09-.5-5.46-.99-9.71-1.46-18.24-26.29-53.76-47.44-53.76-47.44,2.22-4.31,3.43-7.08,3.43-7.08,31.15,18.22,60.04,55.99,60.04,55.99Z"/>
  <path class="cls-22" d="M1156.61,607.05c0,4.77-1.61,7.25-4.44,7.56h-.01c4.98-1.8,1.19-5.74-2.11-9.95-3.32-4.21-4.51-5.27-9.33-11.15-4.82-5.86-14.14-7.67-26.79-10.37-12.64-2.71-31.15-7.98-38.98-9.63-7.68-1.64-52.71-4.78-54.28-4.89,7.9.03,14.88.09,20.59.22,43.03.91,69.97,5.88,93.29,10.84,23.34,4.97,22.08,21.58,22.08,27.39Z"/>
  <path class="cls-47" d="M1578.93,790.65s14.6,7.98,11.44,25.43c0,0,19.11-16.1,23.18-25.43,4.06-9.33,8.28-16.4,8.28-16.4,0,0-21.22,10.53-42.89,16.4Z"/>
  <path class="cls-42" d="M889.68,1159.28c20.43,4.95,40.87,9.94,60.92,16.29,6.66,2.16,13.33,4.27,20.05,6.23,36.84,10.94,74.73,18.77,112.8,24,17.02,2.42,34.97,4.32,52.15,5.64,114.85,8.77,231.6,14.16,345.17-8.92,19.32-3.81,52.95-11.07,72.28-14.46-19.31,4.67-52.98,11.34-72.03,15.7-117.02,24.94-237.67,18.76-356.08,9.09-13.76-1.37-28.14-2.9-41.79-4.91-38.13-5.46-76.06-13.59-112.89-24.83-13.4-4.09-26.55-8.92-40.07-12.65-13.46-3.85-27.01-7.42-40.59-10.84-.21-.04-.13-.39.08-.33h0Z"/>
  <path class="cls-80" d="M823.8,1548.49s-.01.01-.01.01c-5.35-1.58-12.11-.84-17.76,1.37-3.2,1.23-12.18,5.04-22.44,9.47.6-.65,10.93-12.15,18.83-16.24,8.13-4.23,28.59-13.86,31.3-13.86s-2.99,14.42-9.91,19.25Z"/>
  <path class="cls-15" d="M426.15,1361.42c-37-16.59-61.38-33.37-67.52-37.73-11.44-8.13-33.01-19.67-64.41-77.96s-36.42-121.6-30.39-164.03c4.5-31.79,9.18-52.94,21.63-80.91,0,0-21.95,131.77,12.22,204.61,34.17,72.84,55.84,90.09,73.49,105.94,12.27,11.01,39.25,30.05,54.99,50.09Z"/>
  <path class="cls-17" d="M518.88,1391.41c-35.7-7.16-67.23-18.53-92.74-29.99-15.74-20.03-42.72-39.07-54.99-50.09-17.65-15.85-39.32-33.1-73.49-105.94-34.17-72.84-12.22-204.61-12.22-204.61,3.43-7.72,7.45-15.95,12.22-25.07,5.3-2.84,9.75-5.69,12.09-8.09,8.42-8.63,24.49-43.04,38.33-16.56,13.84,26.49,42.13,72.24,58.98,112.27,16.86,40.04,55.68,131.92,71.63,174.01,15.03,39.67,45.29,109.84,40.17,154.06Z"/>
  <path class="cls-28" d="M192.58,514.56c-2,2.8-.39,4.42-.39,12.43s2.4,17.46,9.43,27.09c7.02,9.63,25.08,30.91,25.08,30.91l-7.23,5.81c-7.22,5.82-10.84,7.03-16.85,3.41-6.01-3.6-22.67-16.25-38.72-28.48-15.71-11.99-8.91-25.64-8.61-26.22h0c4.23-4.23,7.99-8.11,11.02-11.61,11.73-13.54,46.94-39.83,54.77-45.95,3.18-2.48,12.05-9.64,22.24-17.72-.81.96-13.87,16.39-21.64,22.04-4.01,2.91-10.78,9.28-16.79,15.28-6.03,5.99-11.3,11.61-12.3,13.02Z"/>
  <path class="cls-55" d="M273.64,583.38l-8.26,17.63c-11.01,15.24-31.06,50.99-31.06,50.99,0,0-6.03-9.63-5.82-13.04.2-3.41,3.21-11.24,16.25-25.48,13.04-14.25,28.89-30.11,28.89-30.11Z"/>
  <path class="cls-54" d="M1052.71,310.08c-.37,8.52-2.87,20.32-12.62,23.7-4.23,1.46-8.1,1.44-11.49.58-7.75-1.95-13.03-8.23-14.56-11.02-2.21-4.01-8.22-23.07-2-35.92,6.22-12.84,18.66-12.84,18.66-12.84,7.57-.53,12.89,5.39,16.39,11.96-1.52.58-3.7.8-6.31-.62,0,0-2.41-3.3-11.28-2.4-8.88.89-15.05,11.73-13.69,23.02,1.35,11.28,10.31,21.21,20.36,20.46,8.28-.62,13.72-8.59,16.55-16.93Z"/>
  <path class="cls-30" d="M1052.71,310.08c-2.83,8.34-8.28,16.31-16.55,16.93-10.05.74-19-9.18-20.36-20.46-1.35-11.3,4.81-22.13,13.69-23.02,8.87-.91,11.28,2.4,11.28,2.4,2.61,1.42,4.79,1.21,6.31.62,1.16,2.19,2.13,4.46,2.9,6.58,0,.03.01.07.03.09.01.05.03.08.03.08h0c1.33,3.74,2.09,6.99,2.33,8.57.24,1.56.47,4.59.34,8.21Z"/>
  <path class="cls-62" d="M1306.24,133.76c39.4,12.32,75.58,41.16,89.36,80.98,8.83,23.33,12.72,48.53,11.61,73.43-.48,9.47-1.62,18.91-3.54,28.16-.03.21-.37.17-.34-.05,4.97-32.54,2.04-66.28-9.14-97.25-.58-1.87-1.83-4.7-2.56-6.55-5.87-15.26-15.02-29.21-26.57-40.78-9.89-10.01-21.21-18.54-33.43-25.55-8.12-4.73-16.64-8.85-25.5-12.08-.21-.05-.11-.4.1-.32h0Z"/>
  <path class="cls-63" d="M1168.95,283.3c-3.92-33.26,1.35-69.26,21.37-96.88,23.9-33.53,68.45-53.01,108.92-41.39,41.23,10.17,73.86,41.05,86.87,81.4,8.81,25.83,13.6,54.07,7.56,81.06-6.77,33.62-27.09,64.99-57.04,82.3-1.43.95-2.98,1.69-4.5,2.47-2.66,1.36-6.48,3.38-9.26,4.39-4.61,1.93-9.83,4.03-14.69,4.93-30.04,6.89-62.94-.94-86.3-21.04-29.51-23.03-49.39-59.61-52.93-97.25h0ZM1170.56,283.12c2.68,37.49,23.14,72.89,53.01,95.38,25.36,20.99,61.99,27.35,92.69,15.45,39.79-16.13,64.16-50.94,70.89-92.74,3.89-24.24-.88-49.07-8.76-72.09-12.43-38.09-42.31-66.64-80.99-77.23-37.98-11.77-80.33,5.93-103.86,36.91-20.29,26.44-26.03,61.72-22.98,94.33h0Z"/>
  <path class="cls-8" d="M640.71,1297.62s-18.73,6.3-40-33.03c-21.27-39.33-47.79-84.27-62.02-119.59-14.23-35.31-50.75-110.36-61.58-134.03-10.84-23.68-43.34-99.12-46.95-108.35-3.61-9.23-14.45-46.05-14.45-48.31s-7.62-25.53-7.62-25.53c0,0,26.08,58.19,32.91,72.64,6.82,14.45,31.3,59.39,36.12,72.23,4.82,12.84,38.8,65.01,47.29,86.28,8.49,21.27,60.26,122,71.1,142.06,10.84,20.07,41.33,82.07,44.14,86.48s1.07,9.15,1.07,9.15Z"/>
  <path class="cls-29" d="M659.29,1305.59l-19.86-27.16-53.27-106.75s-39.74-77.35-45.45-89.69-28-52.97-34.92-67.72c-6.92-14.75-35.21-62-42.73-79.46-7.48-17.31-73.02-157.6-74.03-159.79,10.02,13.44,97.8,189.3,104.72,201.33,6.92,12.04,79.46,152.9,92.41,178.48,12.84,25.38,72.2,148.83,73.12,150.76Z"/>
  <path class="cls-74" d="M976.88,145.59c-6.28-10.12-28.66-24.92-35.07-30.92-6.42-6.03-20.67-13.84-30.3-20.07-9.63-6.22-30.7-18.65-44.14-26.48-13.45-7.83-56.99-18.26-67.22-20.07-10.24-1.8-58.24-1-58.24-1,11-3.48,20.36-5.65,26.93-6.01,28.9-1.61,92.3,10.84,120,29.69,27.68,18.87,57.39,31.71,72.23,50.97,9.93,12.88,12.31,17.69,15.81,23.9Z"/>
  <path class="cls-57" d="M878.81,103.63c21.67,7.31,40.82,18.69,57.43,31.79-2.41-1.29-57.71-30.8-105.98-40.21-49.37-9.63-88.29-17.25-126.01-9.63-37.72,7.63-71.84,28.48-82.27,34.1-10.43,5.62-24.88,19.26-26.49,25.29-.38,1.41,2.99,4.85,8.41,9.71-11.25-.33-25.67,17.17-29.67,23.2-4.01,6.01-27.68,37.72-36.92,51.76-9.22,14.06-24.08,35.72-33.3,49.15-9.24,13.44-15.66,30.53-15.66,30.53-6.42,17.11,15.66,14.22,24.08,7.8,8.42-6.42,34.51-28.09,46.55-35.72,12.04-7.63,39.72-30.89,44.93-37.72,5.2-6.83,18.08-26.49,20.67-38.13,2.59-11.63,0-32.74,0-32.74,17.66,15.93,37.06,35.82,38.34,52.29,2.41,31-10.23,112.89-60.19,151.71-105.1,52.74-169.16,106.6-194.53,130.12,0,0,9.13-92.71,23.97-134.84,14.84-42.13,52.17-105.94,71.84-130.41,19.67-24.49,76.64-103.14,114.77-132.84,1.84-1.44,3.79-2.88,5.82-4.35.6-.42,1.21-.85,1.83-1.29,5.66-3.98,12-8.02,18.76-12.04,1.25-.73,2.51-1.48,3.78-2.21,9.2-5.32,19.08-10.58,29.16-15.55.73-.37,1.46-.72,2.21-1.08,2.53-1.23,5.07-2.45,7.61-3.64.7-.34,1.41-.66,2.13-.99,2.82-1.31,5.63-2.6,8.45-3.85.7-.31,1.41-.62,2.11-.93,10.51-4.62,20.82-8.76,30.32-12.16.62-.23,1.26-.45,1.88-.66,2.51-.88,4.94-1.71,7.33-2.48.58-.19,1.18-.38,1.76-.57,0,0,48-.8,58.24,1,10.23,1.81,53.77,12.24,67.22,20.07,13.44,7.83,34.51,20.26,44.14,26.48,9.63,6.23,23.88,14.04,30.3,20.07,6.41,6,28.78,20.8,35.07,30.92.03.03.05.07.07.09.22.38.43.77.66,1.16.18.31.35.62.54.95,1.46,2.53,3.24,5.42,5.8,9.21,2.82,4.17,6.43,10,10.43,16.84h.01c10.23,17.53,22.94,41.78,31.29,62.61-60.99-115.96-146.87-132.82-146.87-132.82Z"/>
  <path class="cls-70" d="M624.56,205.56c-2.59,11.63-15.47,31.3-20.67,38.13-5.2,6.83-32.88,30.09-44.93,37.72-12.04,7.63-38.13,29.3-46.55,35.72-8.42,6.42-30.5,9.3-24.08-7.8,0,0,6.42-17.09,15.66-30.53,9.22-13.44,24.08-35.09,33.3-49.15,9.24-14.04,32.91-45.75,36.92-51.76,4.01-6.03,18.42-23.53,29.67-23.2,5.4,4.85,12.87,11.11,20.67,18.15,0,0,2.59,21.1,0,32.74Z"/>
  <path class="cls-49" d="M1617.79,583.05c-16.28.77-26.94-4.51-37.61-10.9-15.75-9.44-71.23-46.05-89.89-58.09-9.21-5.93-15.85-11.16-21.48-15.3,0,0,70.94,39.89,79.37,45.49,8.42,5.62,32.3,19.71,38.93,22.5,6.62,2.79,12.65,1.38,16.46,4.79,3.2,2.86,12.85,8.03,14.23,11.51Z"/>
  <path class="cls-43" d="M1046.11,290.55c-2.65-4.51-8.17-6.58-13.18-5.07-3.87,1.17-8.08,3.8-9.15,9.62-2.11,11.44,3.96,20.17,7.25,23.02,3.29,2.86,15.93,4.06,17.73-12.34.77-7.03-.71-11.93-2.65-15.24Z"/>
  <ellipse class="cls-14" cx="1278.35" cy="273.24" rx="104.71" ry="122.79" transform="translate(-27.27 208.43) rotate(-9.22)"/>
  <path class="cls-1" d="M1375.61,281c-.89,35.11-19.26,67.83-25.88,72.95-6.62,5.11-14.14,10.23-29.8,17.76-15.64,7.52-30.09,10.84-30.09,10.84-3.02.5-6.01.85-8.99,1.04,3.09-8.1-.33-29.58-1.95-38.78-2-11.43-12.83-27.28-19.06-43.53-6.22-16.25-29.49-29.9-43.73-36.12-14.25-6.22-24.28,4.21-28.09,11.04-3.74,6.68-3.67,25.35-3.67,26.19-3.81-19.04-1.54-35.12-1.35-45.36.3-15.95,7.83-33.71,24.68-59.13,16.86-25.42,57.59-24.43,57.59-24.43,44.34.69,70.33,28.18,82.37,37.22,12.04,9.02,28.89,35.21,27.98,70.32Z"/>
  <path class="cls-46" d="M1265.76,186.6s-15.95,3.31-23.48,15.05c-7.52,11.74-6.32,27.69,1.81,37.62s23.73,30.4,38.65,30.1c14.92-.3,33.28-7.22,37.79-30.1,4.51-22.88-3.31-31.6-10.53-37.62-7.22-6.02-21.37-18.96-44.24-15.05Z"/>
  <path class="cls-46" d="M1280.85,383.58c-34.02,2.13-64.37-16.37-83.11-47.09-7.29-11.95-11.28-23.47-13.39-34.08v-.03c0-.84-.07-19.52,3.67-26.19,3.81-6.83,13.84-17.25,28.09-11.04,14.25,6.22,37.52,19.87,43.73,36.12,6.23,16.25,17.05,32.1,19.06,43.53,1.63,9.2,5.04,30.68,1.95,38.78Z"/>
</svg>